<svg enable-background="new 0 0 1500 1500" viewBox="0 0 1500 1500" xmlns="http://www.w3.org/2000/svg"><path d="m237.2 507.7h78.2v735.1h-78.2z" fill="#dec399"/><path d="m273.9 388.4h3.7v11.7h-3.7z" fill="#e5833f"/><path d="m274.6 377.8h2.5v11.7h-2.5z" fill="#e5833f"/><path d="m274.9 368.1h1.8v11.7h-1.8z" fill="#e5833f"/><path d="m281.1 402.8h-10.2v.1c-19.7 23.1-63.7 42.4-34.4 74.9h-1.8v6.4h2.7 77.9 1.9v-6.4h-1.8c29.6-32.5-14.7-51.8-34.3-75z" fill="#52aaaa"/><path d="m276 402.8h-5.1v.1c-19.7 23.1-63.7 42.4-34.4 74.9h-1.8v6.4h2.7 38.6z" fill="#404041" opacity=".2"/><path d="m237.5 484.2h77.9v17.8h-77.9z" fill="#dec399"/><path d="m234.8 477.8h82.5v6.4h-82.5z" fill="#f89e45"/><path d="m278.8 399h-5.6c-1.3 0-2.3 1-2.3 2.3v1.5h10.2v-1.5c0-1.3-1-2.3-2.3-2.3z" fill="#f89e45"/><path d="m274.9 368.7h1.8v1.8h-1.8z" fill="#404041" opacity=".2"/><path d="m274.6 380.4h2.5v1.8h-2.5z" fill="#404041" opacity=".2"/><path d="m273.9 393.8h3.7v1.8h-3.7z" fill="#404041" opacity=".2"/><path d="m281.3 366c-5.4 0-9.7-4.4-9.7-9.7 0-1.4.3-2.7.8-3.9-2.4 1.8-4 4.6-4 7.9 0 5.4 4.4 9.7 9.7 9.7 4 0 7.4-2.4 8.9-5.8-1.6 1.2-3.6 1.8-5.7 1.8z" fill="#f89e45"/><path d="m280 377.1c0 2.3-1.9 4.2-4.2 4.2s-4.2-1.9-4.2-4.2 1.9-4.2 4.2-4.2c2.3.1 4.2 1.9 4.2 4.2z" fill="#f89e45"/><path d="m280.9 389.5c0 2.8-2.3 5.1-5.1 5.1s-5.1-2.3-5.1-5.1 2.3-5.1 5.1-5.1 5.1 2.3 5.1 5.1z" fill="#f89e45"/><path d="m279.6 402.8h-1.9-3.3-2v.1c-13.9 23.1-44.9 42.4-24.2 74.9h55.7c20.7-32.5-10.5-51.8-24.3-75zm-3.1 1.6c1.5 5.4 3.5 10.6 5.4 15.6 3.1 8.2 6.2 16.7 7.7 26 1.6 10 .9 19.9-1.9 30.2h-23.1c-2.9-10.3-3.5-20.2-1.9-30.2 1.5-9.3 4.6-17.8 7.7-26 1.9-5 3.8-10.3 5.4-15.6zm-33.4 56.1c-.6-4.8-.1-9.4 1.6-14.2 3.1-9.1 10-17.6 16.7-25.8 4.2-5.2 8.6-10.5 12-16.1h.6c-6.4 22.1-19.5 41-11.1 71.8h-13.8c-3.4-5.4-5.3-10.6-6-15.7zm59.9 15.7h-13.8c8.4-30.8-4.7-49.7-11.1-71.8h.6c3.4 5.5 7.8 10.9 12 16.1 6.7 8.2 13.6 16.6 16.7 25.8 1.7 4.8 2.2 9.5 1.6 14.2-.7 5.1-2.7 10.3-6 15.7z" fill="#404041" opacity=".2"/><path d="m237.5 484.2h77.9v1.2h-77.9z" fill="#404041" opacity=".2"/><path d="m323.7 862.3h-94.8l8.3 21h78.2z" fill="#be6159"/><path d="m228.9 832.9h94.8v29.4h-94.8z" fill="#be6159"/><path d="m228.9 832.9v29.4h94.8v-29.4zm10.5 21.1h-7.7v-18.5h7.7zm10.2 0h-7.7v-18.5h7.7zm10.2 0h-7.7v-18.5h7.7zm10.2 0h-7.7v-18.5h7.7zm10.1 0h-7.7v-18.5h7.7zm10.2 0h-7.7v-18.5h7.7zm10.2 0h-7.7v-18.5h7.7zm10.2 0h-7.7v-18.5h7.7zm10.2 0h-7.7v-18.5h7.7z" fill="#d67c69"/><g fill="#be6159"><path d="m234.9 823.2c-3.3 2.7-3.2 6.6-3.2 6.6v3.1h3.2 3.2v-3.1c-.1 0 .1-3.9-3.2-6.6z"/><path d="m243.2 823.2c-3.3 2.7-3.2 6.6-3.2 6.6v3.1h3.2 3.2v-3.1c-.1 0 .1-3.9-3.2-6.6z"/><path d="m251.5 823.2c-3.3 2.7-3.2 6.6-3.2 6.6v3.1h3.2 3.2v-3.1c-.1 0 0-3.9-3.2-6.6z"/><path d="m259.7 823.2c-3.3 2.7-3.2 6.6-3.2 6.6v3.1h3.2 3.2v-3.1s.1-3.9-3.2-6.6z"/><path d="m268 823.2c-3.3 2.7-3.2 6.6-3.2 6.6v3.1h3.2 3.2v-3.1s.1-3.9-3.2-6.6z"/><path d="m276.3 823.2c-3.3 2.7-3.2 6.6-3.2 6.6v3.1h3.2 3.2v-3.1s.1-3.9-3.2-6.6z"/><path d="m284.6 823.2c-3.3 2.7-3.2 6.6-3.2 6.6v3.1h3.2 3.2v-3.1c-.1 0 .1-3.9-3.2-6.6z"/><path d="m292.9 823.2c-3.3 2.7-3.2 6.6-3.2 6.6v3.1h3.2 3.2v-3.1c-.1 0 .1-3.9-3.2-6.6z"/><path d="m301.2 823.2c-3.3 2.7-3.2 6.6-3.2 6.6v3.1h3.2 3.2v-3.1c-.1 0 0-3.9-3.2-6.6z"/><path d="m309.4 823.2c-3.3 2.7-3.2 6.6-3.2 6.6v3.1h3.2 3.2v-3.1s.1-3.9-3.2-6.6z"/><path d="m317.7 823.2c-3.3 2.7-3.2 6.6-3.2 6.6v3.1h3.2 3.2v-3.1s.1-3.9-3.2-6.6z"/><path d="m323.7 659.1h-94.8l8.3 20.9h78.2z"/><path d="m228.9 629.7h94.8v29.4h-94.8z"/></g><path d="m228.9 629.7v29.4h94.8v-29.4zm10.5 21.1h-7.7v-18.5h7.7zm10.2 0h-7.7v-18.5h7.7zm10.2 0h-7.7v-18.5h7.7zm10.2 0h-7.7v-18.5h7.7zm10.1 0h-7.7v-18.5h7.7zm10.2 0h-7.7v-18.5h7.7zm10.2 0h-7.7v-18.5h7.7zm10.2 0h-7.7v-18.5h7.7zm10.2 0h-7.7v-18.5h7.7z" fill="#d67c69"/><path d="m234.9 620c-3.3 2.7-3.2 6.6-3.2 6.6v3.1h3.2 3.2v-3.1c-.1 0 .1-3.9-3.2-6.6z" fill="#be6159"/><path d="m243.2 620c-3.3 2.7-3.2 6.6-3.2 6.6v3.1h3.2 3.2v-3.1c-.1 0 .1-3.9-3.2-6.6z" fill="#be6159"/><path d="m251.5 620c-3.3 2.7-3.2 6.6-3.2 6.6v3.1h3.2 3.2v-3.1c-.1 0 0-3.9-3.2-6.6z" fill="#be6159"/><path d="m259.7 620c-3.3 2.7-3.2 6.6-3.2 6.6v3.1h3.2 3.2v-3.1s.1-3.9-3.2-6.6z" fill="#be6159"/><path d="m268 620c-3.3 2.7-3.2 6.6-3.2 6.6v3.1h3.2 3.2v-3.1s.1-3.9-3.2-6.6z" fill="#be6159"/><path d="m276.3 620c-3.3 2.7-3.2 6.6-3.2 6.6v3.1h3.2 3.2v-3.1s.1-3.9-3.2-6.6z" fill="#be6159"/><path d="m284.6 620c-3.3 2.7-3.2 6.6-3.2 6.6v3.1h3.2 3.2v-3.1c-.1 0 .1-3.9-3.2-6.6z" fill="#be6159"/><path d="m292.9 620c-3.3 2.7-3.2 6.6-3.2 6.6v3.1h3.2 3.2v-3.1c-.1 0 .1-3.9-3.2-6.6z" fill="#be6159"/><path d="m301.2 620c-3.3 2.7-3.2 6.6-3.2 6.6v3.1h3.2 3.2v-3.1c-.1 0 0-3.9-3.2-6.6z" fill="#be6159"/><path d="m309.4 620c-3.3 2.7-3.2 6.6-3.2 6.6v3.1h3.2 3.2v-3.1s.1-3.9-3.2-6.6z" fill="#be6159"/><path d="m317.7 620c-3.3 2.7-3.2 6.6-3.2 6.6v3.1h3.2 3.2v-3.1s.1-3.9-3.2-6.6z" fill="#be6159"/><path d="m233.8 500.4h85.1v7.3h-85.1z" fill="#f89e45"/><path d="m237.2 507.7h78.2v2.7h-78.2z" fill="#404041" opacity=".2"/><path d="m289.2 588.2h-24.5v-36.2c0-6.6 5.3-11.9 11.9-11.9h.8c6.5 0 11.9 5.3 11.9 11.9v36.2z" fill="#4b4254"/><path d="m277.2 540.1h-.5c-3.4 0-6.5 1.4-8.7 3.7h.6.5c6.6 0 12 5.4 12 12v32.4h8v-36.1c.1-6.6-5.3-12-11.9-12z" fill="#404041" opacity=".2"/><path d="m277 536.4c-8.8 0-15.9 7.1-15.9 15.9v35.8 3.7h3.7 24.5 3.7v-3.7-35.8c-.1-8.7-7.3-15.9-16-15.9zm12.2 51.8h-24.5v-35.8c0-6.8 5.5-12.2 12.2-12.2 6.8 0 12.2 5.5 12.2 12.2v35.8z" fill="#d67c69"/><path d="m289.2 772.3h-24.5v-36.2c0-6.5 5.3-11.9 11.9-11.9h.8c6.5 0 11.9 5.3 11.9 11.9v36.2z" fill="#4b4254"/><path d="m277.2 724.2h-.5c-3.4 0-6.5 1.4-8.7 3.7h.6.5c6.6 0 12 5.4 12 12v32.4h8v-36.1c.1-6.6-5.3-12-11.9-12z" fill="#404041" opacity=".2"/><path d="m277 720.6c-8.8 0-15.9 7.1-15.9 15.9v35.8 3.7h3.7 24.5 3.7v-3.7-35.8c-.1-8.8-7.3-15.9-16-15.9zm12.2 51.7h-24.5v-35.8c0-6.8 5.5-12.2 12.2-12.2 6.8 0 12.2 5.5 12.2 12.2v35.8z" fill="#d67c69"/><path d="m252.9 1242.8h16.2v-211h-4.3z" fill="#404041" opacity=".2"/><path d="m433.6 788.7h8v25.1h-8z" fill="#e5833f"/><path d="m435 766h5.3v25.1h-5.3z" fill="#e5833f"/><path d="m435.7 745h3.8v25.1h-3.8z" fill="#e5833f"/><path d="m449 819.6h-21.9v.2c-42.2 49.6-136.9 91-73.8 160.8h-3.8v13.7h5.8 167.4 4.1v-13.7h-3.8c63.1-69.8-31.9-111.3-74-161z" fill="#52aaaa"/><path d="m438.1 819.6h-11v.2c-42.2 49.6-136.9 91-73.8 160.8h-3.8v13.7h5.8 82.8z" fill="#404041" opacity=".2"/><path d="m355.3 994.3h167.4v38.1h-167.4z" fill="#f5e2ac"/><path d="m349.5 980.7h177.3v13.7h-177.3z" fill="#f89e45"/><path d="m378.7 1012.3c.2-4.5-6.1-7.6-8.1-11.5-2 3.9-8.3 7-8.1 11.5v20.2h.1 2.2 5.8 5.8 2.2.1z" fill="#4b4254"/><path d="m378.7 1012.3c.2-4.5-6.1-7.6-8.1-11.5-.7 1.4-2 2.7-3.3 4 2.6 2.9 6.6 5.6 6.4 9.2v18.4h2.7 2.2.1z" fill="#404041" opacity=".2"/><path d="m401.5 1012.3c.2-4.5-6.1-7.6-8.1-11.5-2 3.9-8.3 7-8.1 11.5v20.2h.1 2.2 5.8 5.8 2.2.1z" fill="#4b4254"/><path d="m424.3 1012.3c.2-4.5-6.1-7.6-8.1-11.5-2 3.9-8.3 7-8.1 11.5v20.2h.1 2.2 5.8 5.8 2.2.1z" fill="#4b4254"/><path d="m447 1012.3c.2-4.5-6.1-7.6-8.1-11.5-2 3.9-8.3 7-8.1 11.5v20.2h.1 2.2 5.8 5.8 2.2.1z" fill="#4b4254"/><path d="m469.8 1012.3c.2-4.5-6.1-7.6-8.1-11.5-2 3.9-8.3 7-8.1 11.5v20.2h.1 2.2 5.8 5.8 2.2.1z" fill="#4b4254"/><path d="m492.6 1012.3c.2-4.5-6.1-7.6-8.1-11.5-2 3.9-8.3 7-8.1 11.5v20.2h.1 2.2 5.8 5.8 2.2.1z" fill="#4b4254"/><path d="m515.3 1012.3c.2-4.5-6.1-7.6-8.1-11.5-2 3.9-8.3 7-8.1 11.5v20.2h.1 2.2 5.8 5.8 2.2.1z" fill="#4b4254"/><path d="m446.7 811.4h-17.3c-1.3 0-2.3 1-2.3 2.3v5.9h21.9v-5.9c0-1.2-1-2.3-2.3-2.3z" fill="#f89e45"/><path d="m435.7 746.3h3.8v3.9h-3.8z" fill="#404041" opacity=".2"/><path d="m435 771.5h5.3v3.9h-5.3z" fill="#404041" opacity=".2"/><path d="m433.6 800.3h8v3.9h-8z" fill="#404041" opacity=".2"/><path d="m449.3 740.7c-11.5 0-20.9-9.3-20.9-20.9 0-3 .6-5.8 1.7-8.3-5.2 3.8-8.7 9.9-8.7 16.9 0 11.5 9.3 20.9 20.9 20.9 8.6 0 15.9-5.2 19.1-12.5-3.3 2.4-7.5 3.9-12.1 3.9z" fill="#f89e45"/><path d="m446.5 764.5c0 5-4 9-9 9s-9-4-9-9 4-9 9-9 9 4 9 9z" fill="#f89e45"/><ellipse cx="437.6" cy="791" fill="#f89e45" rx="11" ry="11" transform="matrix(.9999 -.01388424 .01388424 .9999 -10.9407 6.1517)"/><path d="m445.8 819.6h-4.1-7.1-4.2v.2c-29.8 49.6-96.5 91-52 160.8h119.6c44.5-69.8-22.5-111.3-52.2-161zm-6.8 3.5c3.3 11.5 7.5 22.7 11.5 33.5 6.6 17.6 13.4 35.9 16.5 55.7 3.4 21.4 2 42.7-4.1 64.9h-49.5c-6.1-22.2-7.5-43.5-4.1-64.9 3.1-19.9 9.9-38.1 16.5-55.7 4-10.8 8.2-22 11.5-33.5zm-71.6 120.4c-1.3-10.2-.2-20.2 3.3-30.6 6.7-19.6 21.5-37.8 35.9-55.4 9.1-11.1 18.5-22.6 25.8-34.5h1.2c-13.8 47.4-41.8 87.9-23.8 154.2h-29.6c-7.2-11.6-11.3-22.6-12.8-33.7zm128.6 33.7h-29.6c18-66.2-10.1-106.8-23.8-154.2h1.2c7.3 11.9 16.7 23.4 25.8 34.5 14.3 17.6 29.1 35.7 35.9 55.4 3.6 10.4 4.7 20.4 3.3 30.6-1.4 11.1-5.6 22.1-12.8 33.7z" fill="#404041" opacity=".2"/><path d="m401.5 1012.3c.2-4.5-6.1-7.6-8.1-11.5-.7 1.4-2 2.7-3.3 4 2.6 2.9 6.6 5.6 6.4 9.2v18.4h2.7 2.2.1z" fill="#404041" opacity=".2"/><path d="m424.3 1012.3c.2-4.5-6.1-7.6-8.1-11.5-.7 1.4-2 2.7-3.3 4 2.6 2.9 6.6 5.6 6.4 9.2v18.4h2.7 2.2.1z" fill="#404041" opacity=".2"/><path d="m447 1012.3c.2-4.5-6.1-7.6-8.1-11.5-.7 1.4-2 2.7-3.3 4 2.6 2.9 6.6 5.6 6.4 9.2v18.4h2.7 2.2.1z" fill="#404041" opacity=".2"/><path d="m469.8 1012.3c.2-4.5-6.1-7.6-8.1-11.5-.7 1.4-2 2.7-3.3 4 2.6 2.9 6.6 5.6 6.4 9.2v18.4h2.7 2.2.1z" fill="#404041" opacity=".2"/><path d="m492.6 1012.3c.2-4.5-6.1-7.6-8.1-11.5-.7 1.4-2 2.7-3.3 4 2.6 2.9 6.6 5.6 6.4 9.2v18.4h2.7 2.2.1z" fill="#404041" opacity=".2"/><path d="m515.3 1012.3c.2-4.5-6.1-7.6-8.1-11.5-.7 1.4-2 2.7-3.3 4 2.6 2.9 6.6 5.6 6.4 9.2v18.4h2.7 2.2.1z" fill="#404041" opacity=".2"/><path d="m353.6 994.3h167.4v2.5h-167.4z" fill="#404041" opacity=".2" transform="matrix(-1 0 0 -1 874.5313 1991.1991)"/><path d="m269.1 1043.9h335.9v198.8h-335.9z" fill="#f5e2ac" transform="matrix(-1 0 0 -1 874.0274 2286.7256)"/><path d="m263.6 1053.4h341.4v9.6h-341.4z" fill="#f89e45" transform="matrix(-1 0 0 -1 868.5342 2116.49)"/><path d="m269.1 1063.1h335.9v3.3h-335.9z" fill="#404041" opacity=".2" transform="matrix(-1 0 0 -1 874.0274 2129.4219)"/><path d="m269.1 1219.9h334.7v22.8h-334.7z" fill="#be6159" transform="matrix(-1 0 0 -1 872.8184 2462.7266)"/><path d="m538.6 1242.8h43.6v-133.3c0-10-8.1-18.1-18.1-18.1h-7.3c-10 0-18.1 8.1-18.1 18.1v133.3z" fill="#4b4254"/><path d="m560.4 1084.8c15.6 0 28.4 12.7 28.4 28.4v123.1 6.6h-6.6v-6.6-25.9-97.1c0-12-9.8-21.8-21.8-21.8s-21.8 9.8-21.8 21.8v97.1 32.5h-6.6v-6.6-123.1c.1-15.7 12.8-28.4 28.4-28.4z" fill="#f89e45"/><path d="m560.4 1091.4c6.5 0 12.2 2.8 16.2 7.3-.3 0-.6 0-.9 0-12 0-21.8 9.8-21.8 21.8v122.4h-15.3v-129.6c0-12.2 9.8-21.9 21.8-21.9z" fill="#404041" opacity=".2"/><path d="m459.4 1242.8h43.6v-133.3c0-10-8.1-18.1-18.1-18.1h-7.3c-10 0-18.1 8.1-18.1 18.1v133.3z" fill="#4b4254"/><path d="m481.2 1084.8c15.6 0 28.4 12.7 28.4 28.4v123.1 6.6h-6.6v-6.6-25.9-97.1c0-12-9.8-21.8-21.8-21.8s-21.8 9.8-21.8 21.8v97.1 32.5h-6.6v-6.6-123.1c.1-15.7 12.8-28.4 28.4-28.4z" fill="#f89e45"/><path d="m481.2 1091.4c6.4 0 12.2 2.8 16.2 7.3-.3 0-.6 0-.9 0-12 0-21.8 9.8-21.8 21.8v122.4h-15.3v-129.6c0-12.2 9.8-21.9 21.8-21.9z" fill="#404041" opacity=".2"/><path d="m380.2 1242.8h43.6v-133.3c0-10-8.1-18.1-18.1-18.1h-7.3c-10 0-18.1 8.1-18.1 18.1v133.3z" fill="#4b4254"/><path d="m402 1084.8c15.6 0 28.4 12.7 28.4 28.4v123.1 6.6h-6.6v-6.6-25.9-97.1c0-12-9.8-21.8-21.8-21.8s-21.8 9.8-21.8 21.8v97.1 32.5h-6.6v-6.6-123.1c0-15.7 12.8-28.4 28.4-28.4z" fill="#f89e45"/><path d="m402 1091.4c6.5 0 12.2 2.8 16.2 7.3-.3 0-.6 0-.9 0-12 0-21.8 9.8-21.8 21.8v122.4h-15.3v-129.6c0-12.2 9.8-21.9 21.8-21.9z" fill="#404041" opacity=".2"/><path d="m301 1242.8h43.6v-133.3c0-10-8.1-18.1-18.1-18.1h-7.3c-10 0-18.1 8.1-18.1 18.1v133.3z" fill="#4b4254"/><path d="m322.8 1084.8c15.6 0 28.4 12.7 28.4 28.4v123.1 6.6h-6.6v-6.6-25.9-97.1c0-12-9.8-21.8-21.8-21.8s-21.8 9.8-21.8 21.8v97.1 32.5h-6.6v-6.6-123.1c0-15.7 12.8-28.4 28.4-28.4z" fill="#f89e45"/><path d="m322.8 1091.4c6.5 0 12.2 2.8 16.2 7.3-.3 0-.6 0-.9 0-12 0-21.8 9.8-21.8 21.8v122.4h-15.3v-129.6c0-12.2 9.8-21.9 21.8-21.9z" fill="#404041" opacity=".2"/><path d="m266.8 1037.9h338.1v6.1h-338.1z" fill="#be6159" transform="matrix(-1 0 0 -1 871.795 2081.8164)"/><path d="m264.8 1031.8h340.2v6.1h-340.2z" fill="#be6159" transform="matrix(-1 0 0 -1 869.7354 2069.6875)"/><path d="m266.8 1037.9h338.1v2.2h-338.1z" fill="#404041" opacity=".2" transform="matrix(-1 0 0 -1 871.795 2077.9824)"/><path d="m269.1 1043.9h335.9v2.2h-335.9z" fill="#404041" opacity=".2" transform="matrix(-1 0 0 -1 874.0274 2090.1133)"/><path d="m588.8 1242.8h16.2v-211h-3.9z" fill="#404041" opacity=".2"/><path d="m1216.2 507.7h78.2v735.1h-78.2z" fill="#dec399"/><path d="m1252.9 388.4h3.7v11.7h-3.7z" fill="#e5833f"/><path d="m1253.5 377.8h2.5v11.7h-2.5z" fill="#e5833f"/><path d="m1253.9 368.1h1.8v11.7h-1.8z" fill="#e5833f"/><path d="m1260 402.8h-10.2v.1c-19.7 23.1-63.7 42.4-34.4 74.9h-1.8v6.4h2.7 77.9 1.9v-6.4h-1.8c29.6-32.5-14.7-51.8-34.3-75z" fill="#52aaaa"/><path d="m1255 402.8h-5.1v.1c-19.7 23.1-63.7 42.4-34.4 74.9h-1.8v6.4h2.7 38.5v-81.4z" fill="#404041" opacity=".2"/><path d="m1216.4 484.2h77.9v17.8h-77.9z" fill="#dec399"/><path d="m1213.7 477.8h82.5v6.4h-82.5z" fill="#f89e45"/><path d="m1257.7 399h-5.6c-1.3 0-2.3 1-2.3 2.3v1.5h10.2v-1.5c.1-1.3-1-2.3-2.3-2.3z" fill="#f89e45"/><path d="m1253.9 368.7h1.8v1.8h-1.8z" fill="#404041" opacity=".2"/><path d="m1253.5 380.4h2.5v1.8h-2.5z" fill="#404041" opacity=".2"/><path d="m1252.9 393.8h3.7v1.8h-3.7z" fill="#404041" opacity=".2"/><path d="m1260.2 366c-5.4 0-9.7-4.4-9.7-9.7 0-1.4.3-2.7.8-3.9-2.4 1.8-4 4.6-4 7.9 0 5.4 4.4 9.7 9.7 9.7 4 0 7.4-2.4 8.9-5.8-1.6 1.2-3.6 1.8-5.7 1.8z" fill="#f89e45"/><path d="m1258.9 377.1c0 2.3-1.9 4.2-4.2 4.2s-4.2-1.9-4.2-4.2 1.9-4.2 4.2-4.2 4.2 1.9 4.2 4.2z" fill="#f89e45"/><path d="m1259.9 389.5c0 2.8-2.3 5.1-5.1 5.1s-5.1-2.3-5.1-5.1 2.3-5.1 5.1-5.1 5.1 2.3 5.1 5.1z" fill="#f89e45"/><path d="m1258.5 402.8h-1.9-3.3-2v.1c-13.9 23.1-44.9 42.4-24.2 74.9h55.7c20.8-32.5-10.4-51.8-24.3-75zm-3.1 1.6c1.5 5.4 3.5 10.6 5.4 15.6 3.1 8.2 6.2 16.7 7.7 26 1.6 10 .9 19.9-1.9 30.2h-23.1c-2.9-10.3-3.5-20.2-1.9-30.2 1.5-9.3 4.6-17.8 7.7-26 1.9-5 3.8-10.3 5.4-15.6zm-33.3 56.1c-.6-4.8-.1-9.4 1.6-14.2 3.1-9.1 10-17.6 16.7-25.8 4.2-5.2 8.6-10.5 12-16.1h.6c-6.4 22.1-19.5 41-11.1 71.8h-13.9c-3.3-5.4-5.3-10.6-5.9-15.7zm59.9 15.7h-13.8c8.4-30.8-4.7-49.7-11.1-71.8h.6c3.4 5.5 7.8 10.9 12 16.1 6.7 8.2 13.6 16.6 16.7 25.8 1.7 4.8 2.2 9.5 1.6 14.2-.8 5.1-2.7 10.3-6 15.7z" fill="#404041" opacity=".2"/><path d="m1216.4 484.2h77.9v1.2h-77.9z" fill="#404041" opacity=".2"/><path d="m1302.7 862.3h-94.9l8.4 21h78.2z" fill="#be6159"/><path d="m1207.8 832.9h94.8v29.4h-94.8z" fill="#be6159"/><path d="m1207.8 832.9v29.4h94.8v-29.4zm10.5 21.1h-7.7v-18.5h7.7zm10.2 0h-7.7v-18.5h7.7zm10.2 0h-7.7v-18.5h7.7zm10.2 0h-7.7v-18.5h7.7zm10.2 0h-7.7v-18.5h7.7zm10.2 0h-7.7v-18.5h7.7zm10.2 0h-7.7v-18.5h7.7zm10.1 0h-7.7v-18.5h7.7zm10.2 0h-7.7v-18.5h7.7z" fill="#d67c69"/><path d="m1213.8 823.2c-3.3 2.7-3.2 6.6-3.2 6.6v3.1h3.2 3.2v-3.1s.1-3.9-3.2-6.6z" fill="#be6159"/><path d="m1222.1 823.2c-3.3 2.7-3.2 6.6-3.2 6.6v3.1h3.2 3.2v-3.1s.1-3.9-3.2-6.6z" fill="#be6159"/><path d="m1230.4 823.2c-3.3 2.7-3.2 6.6-3.2 6.6v3.1h3.2 3.2v-3.1s.1-3.9-3.2-6.6z" fill="#be6159"/><path d="m1238.7 823.2c-3.3 2.7-3.2 6.6-3.2 6.6v3.1h3.2 3.2v-3.1c-.1 0 .1-3.9-3.2-6.6z" fill="#be6159"/><path d="m1247 823.2c-3.3 2.7-3.2 6.6-3.2 6.6v3.1h3.2 3.2v-3.1c-.1 0 .1-3.9-3.2-6.6z" fill="#be6159"/><path d="m1255.3 823.2c-3.3 2.7-3.2 6.6-3.2 6.6v3.1h3.2 3.2v-3.1c-.1 0 0-3.9-3.2-6.6z" fill="#be6159"/><path d="m1263.5 823.2c-3.3 2.7-3.2 6.6-3.2 6.6v3.1h3.2 3.2v-3.1s.1-3.9-3.2-6.6z" fill="#be6159"/><path d="m1271.8 823.2c-3.3 2.7-3.2 6.6-3.2 6.6v3.1h3.2 3.2v-3.1s.1-3.9-3.2-6.6z" fill="#be6159"/><path d="m1280.1 823.2c-3.3 2.7-3.2 6.6-3.2 6.6v3.1h3.2 3.2v-3.1s.1-3.9-3.2-6.6z" fill="#be6159"/><path d="m1288.4 823.2c-3.3 2.7-3.2 6.6-3.2 6.6v3.1h3.2 3.2v-3.1c-.1 0 .1-3.9-3.2-6.6z" fill="#be6159"/><path d="m1296.7 823.2c-3.3 2.7-3.2 6.6-3.2 6.6v3.1h3.2 3.2v-3.1c-.1 0 .1-3.9-3.2-6.6z" fill="#be6159"/><path d="m1302.7 659.1h-94.9l8.4 20.9h78.2z" fill="#be6159"/><path d="m1207.8 629.7h94.8v29.4h-94.8z" fill="#be6159"/><path d="m1207.8 629.7v29.4h94.8v-29.4zm10.5 21.1h-7.7v-18.5h7.7zm10.2 0h-7.7v-18.5h7.7zm10.2 0h-7.7v-18.5h7.7zm10.2 0h-7.7v-18.5h7.7zm10.2 0h-7.7v-18.5h7.7zm10.2 0h-7.7v-18.5h7.7zm10.2 0h-7.7v-18.5h7.7zm10.1 0h-7.7v-18.5h7.7zm10.2 0h-7.7v-18.5h7.7z" fill="#d67c69"/><path d="m1213.8 620c-3.3 2.7-3.2 6.6-3.2 6.6v3.1h3.2 3.2v-3.1s.1-3.9-3.2-6.6z" fill="#be6159"/><path d="m1222.1 620c-3.3 2.7-3.2 6.6-3.2 6.6v3.1h3.2 3.2v-3.1s.1-3.9-3.2-6.6z" fill="#be6159"/><path d="m1230.4 620c-3.3 2.7-3.2 6.6-3.2 6.6v3.1h3.2 3.2v-3.1s.1-3.9-3.2-6.6z" fill="#be6159"/><path d="m1238.7 620c-3.3 2.7-3.2 6.6-3.2 6.6v3.1h3.2 3.2v-3.1c-.1 0 .1-3.9-3.2-6.6z" fill="#be6159"/><path d="m1247 620c-3.3 2.7-3.2 6.6-3.2 6.6v3.1h3.2 3.2v-3.1c-.1 0 .1-3.9-3.2-6.6z" fill="#be6159"/><path d="m1255.3 620c-3.3 2.7-3.2 6.6-3.2 6.6v3.1h3.2 3.2v-3.1c-.1 0 0-3.9-3.2-6.6z" fill="#be6159"/><path d="m1263.5 620c-3.3 2.7-3.2 6.6-3.2 6.6v3.1h3.2 3.2v-3.1s.1-3.9-3.2-6.6z" fill="#be6159"/><path d="m1271.8 620c-3.3 2.7-3.2 6.6-3.2 6.6v3.1h3.2 3.2v-3.1s.1-3.9-3.2-6.6z" fill="#be6159"/><path d="m1280.1 620c-3.3 2.7-3.2 6.6-3.2 6.6v3.1h3.2 3.2v-3.1s.1-3.9-3.2-6.6z" fill="#be6159"/><path d="m1288.4 620c-3.3 2.7-3.2 6.6-3.2 6.6v3.1h3.2 3.2v-3.1c-.1 0 .1-3.9-3.2-6.6z" fill="#be6159"/><path d="m1296.7 620c-3.3 2.7-3.2 6.6-3.2 6.6v3.1h3.2 3.2v-3.1c-.1 0 .1-3.9-3.2-6.6z" fill="#be6159"/><path d="m1212.7 500.4h85.1v7.3h-85.1z" fill="#f89e45"/><path d="m1216.2 507.7h78.2v2.7h-78.2z" fill="#404041" opacity=".2"/><path d="m1268.1 588.2h-24.5v-36.2c0-6.6 5.3-11.9 11.9-11.9h.7c6.5 0 11.9 5.3 11.9 11.9z" fill="#4b4254"/><path d="m1256.1 540.1h-.5c-3.4 0-6.5 1.4-8.7 3.7h.6.5c6.6 0 12 5.4 12 12v32.4h8v-36.1c.1-6.6-5.2-12-11.9-12z" fill="#404041" opacity=".2"/><path d="m1255.9 536.4c-8.8 0-15.9 7.1-15.9 15.9v35.8 3.7h3.7 24.5 3.7v-3.7-35.8c-.1-8.7-7.2-15.9-16-15.9zm12.2 51.8h-24.5v-35.8c0-6.8 5.5-12.2 12.2-12.2 6.8 0 12.2 5.5 12.2 12.2v35.8z" fill="#d67c69"/><path d="m1268.1 772.3h-24.5v-36.2c0-6.5 5.3-11.9 11.9-11.9h.7c6.5 0 11.9 5.3 11.9 11.9z" fill="#4b4254"/><path d="m1256.1 724.2h-.5c-3.4 0-6.5 1.4-8.7 3.7h.6.5c6.6 0 12 5.4 12 12v32.4h8v-36.1c.1-6.6-5.2-12-11.9-12z" fill="#404041" opacity=".2"/><path d="m1255.9 720.6c-8.8 0-15.9 7.1-15.9 15.9v35.8 3.7h3.7 24.5 3.7v-3.7-35.8c-.1-8.8-7.2-15.9-16-15.9zm12.2 51.7h-24.5v-35.8c0-6.8 5.5-12.2 12.2-12.2 6.8 0 12.2 5.5 12.2 12.2v35.8z" fill="#d67c69"/><path d="m759.5 590.7h12.6v39.7h-12.6z" fill="#e5833f"/><path d="m761.6 554.7h8.3v39.6h-8.3z" fill="#e5833f"/><path d="m762.8 521.5h6v39.6h-6z" fill="#e5833f"/><path d="m783.8 639.6h-34.6v.4c-66.8 78.4-216.6 144-116.8 254.4h-6v21.6h9.2 264.8 6.5v-21.6h-6c99.9-110.6-50.5-176.2-117.1-254.8z" fill="#52aaaa"/><path d="m766.5 639.6h-17.4v.4c-66.8 78.4-216.6 144-116.8 254.4h-6v21.6h9.2 130.9v-276.4z" fill="#404041" opacity=".2"/><path d="m635.6 916h264.8v60.4h-264.8z" fill="#f5e2ac"/><path d="m626.4 894.4h280.5v21.6h-280.5z" fill="#f89e45"/><path d="m672.7 944.5c.3-7.1-9.7-12-12.8-18.2-3.1 6.2-13.1 11.1-12.8 18.2v31.9h.1 3.5 9.2 9.2 3.5.1z" fill="#4b4254"/><path d="m672.7 944.5c.3-7.1-9.7-12-12.8-18.2-1.3 2.6-3.8 4.9-6.2 7.3 4 5.1 11.5 9.6 11.2 15.7v27.1h4.1 3.5.1z" fill="#404041" opacity=".2"/><path d="m708.7 944.5c.3-7.1-9.7-12-12.8-18.2-3.1 6.2-13.1 11.1-12.8 18.2v31.9h.1 3.5 9.2 9.2 3.5.1z" fill="#4b4254"/><path d="m744.7 944.5c.3-7.1-9.7-12-12.8-18.2-3.1 6.2-13.1 11.1-12.8 18.2v31.9h.1 3.5 9.2 9.2 3.5.1z" fill="#4b4254"/><path d="m780.7 944.5c.3-7.1-9.7-12-12.8-18.2-3.1 6.2-13.1 11.1-12.8 18.2v31.9h.1 3.5 9.2 9.2 3.5.1z" fill="#4b4254"/><path d="m816.7 944.5c.3-7.1-9.7-12-12.8-18.2-3.1 6.2-13.1 11.1-12.8 18.2v31.9h.1 3.5 9.2 9.2 3.5.1z" fill="#4b4254"/><path d="m852.8 944.5c.3-7.1-9.7-12-12.8-18.2-3.1 6.2-13.1 11.1-12.8 18.2v31.9h.1 3.5 9.2 9.2 3.5.1z" fill="#4b4254"/><path d="m888.8 944.5c.3-7.1-9.7-12-12.8-18.2-3.1 6.2-13.1 11.1-12.8 18.2v31.9h.1 3.5 9.2 9.2 3.5.1z" fill="#4b4254"/><path d="m781.6 626.6h-30.1c-1.3 0-2.3 1-2.3 2.3v10.7h34.7v-10.7c0-1.3-1-2.3-2.3-2.3z" fill="#f89e45"/><path d="m762.8 523.6h6v6.2h-6z" fill="#404041" opacity=".2"/><path d="m761.6 563.4h8.3v6.2h-8.3z" fill="#404041" opacity=".2"/><path d="m759.5 609h12.6v6.2h-12.6z" fill="#404041" opacity=".2"/><path d="m784.4 514.7c-18.2 0-33-14.8-33-33 0-4.7 1-9.2 2.8-13.2-8.3 6-13.7 15.7-13.7 26.7 0 18.2 14.8 33 33 33 13.5 0 25.2-8.2 30.3-19.8-5.5 3.9-12.2 6.3-19.4 6.3z" fill="#f89e45"/><path d="m780 552.3c0 7.8-6.4 14.2-14.2 14.2s-14.2-6.4-14.2-14.2 6.4-14.2 14.2-14.2c7.8.1 14.2 6.4 14.2 14.2z" fill="#f89e45"/><circle cx="765.8" cy="594.3" fill="#f89e45" r="17.4"/><path d="m778.7 639.6h-6.6-11.1-6.7v.4c-47.1 78.4-152.7 144-82.3 254.4h189.2c70.5-110.6-35.5-176.2-82.5-254.8zm-10.7 5.5c5.2 18.2 11.8 35.9 18.2 53 10.4 27.9 21.2 56.7 26.1 88.2 5.3 33.9 3.2 67.5-6.5 102.7h-78.3c-9.7-35.2-11.9-68.8-6.5-102.7 4.9-31.5 15.7-60.3 26.1-88.2 6.4-17.2 13-34.9 18.2-53zm-113.2 190.5c-2.1-16.1-.3-32 5.3-48.4 10.7-31.1 34.1-59.8 56.8-87.6 14.4-17.6 29.2-35.8 40.8-54.6h2c-21.9 75-66.3 139.2-37.9 244h-46.8c-11.3-18.4-18-35.9-20.2-53.4zm203.4 53.4h-46.8c28.4-104.8-16-169-37.7-243.9h2c11.6 18.8 26.4 37 40.8 54.6 22.7 27.8 46.1 56.5 56.8 87.6 5.6 16.4 7.4 32.3 5.3 48.4-2.4 17.4-9 34.9-20.4 53.3z" fill="#404041" opacity=".2"/><path d="m708.7 944.5c.3-7.1-9.7-12-12.8-18.2-1.3 2.6-3.8 4.9-6.2 7.3 4 5.1 11.5 9.6 11.2 15.7v27.1h4.1 3.5.1z" fill="#404041" opacity=".2"/><path d="m744.7 944.5c.3-7.1-9.7-12-12.8-18.2-1.3 2.6-3.8 4.9-6.2 7.3 4 5.1 11.5 9.6 11.2 15.7v27.1h4.1 3.5.1z" fill="#404041" opacity=".2"/><path d="m780.7 944.5c.3-7.1-9.7-12-12.8-18.2-1.3 2.6-3.8 4.9-6.2 7.3 4 5.1 11.5 9.6 11.2 15.7v27.1h4.1 3.5.1z" fill="#404041" opacity=".2"/><path d="m816.7 944.5c.3-7.1-9.7-12-12.8-18.2-1.3 2.6-3.8 4.9-6.2 7.3 4 5.1 11.5 9.6 11.2 15.7v27.1h4.1 3.5.1z" fill="#404041" opacity=".2"/><path d="m852.8 944.5c.3-7.1-9.7-12-12.8-18.2-1.3 2.6-3.8 4.9-6.2 7.3 4 5.1 11.5 9.6 11.2 15.7v27.1h4.1 3.5.1z" fill="#404041" opacity=".2"/><path d="m888.8 944.5c.3-7.1-9.7-12-12.8-18.2-1.3 2.6-3.8 4.9-6.2 7.3 4 5.1 11.5 9.6 11.2 15.7v27.1h4.1 3.5.1z" fill="#404041" opacity=".2"/><path d="m221.8 1250.7h1085.2v7.9h-1085.2z" fill="#b69a8f"/><path d="m227.4 1242.8h1073.9v7.9h-1073.9z" fill="#927d74"/><path d="m604.9 988.4h327.4v254.4h-327.4z" fill="#f5e2c2"/><path d="m631.3 1083v159.8h74v-159.8c.9-17-28-28.9-37-43.8-9 14.9-37.9 26.8-37 43.8z" fill="#4b4254"/><path d="m668.3 1039.2c-3.7 6.1-10.7 11.7-17.6 17.3 11.6 12.4 33.4 23.3 32.6 38.1v148.1h22v-159.7c.8-17-28-28.9-37-43.8z" fill="#404041" opacity=".2"/><path d="m731.6 1083v159.8h74v-159.8c.9-17-28-28.9-37-43.8-9.1 14.9-37.9 26.8-37 43.8z" fill="#4b4254"/><path d="m831.9 1083v159.8h74v-159.8c.9-17-28-28.9-37-43.8-9 14.9-37.9 26.8-37 43.8z" fill="#4b4254"/><path d="m601.1 1084.8h33.9v8.9h-33.9z" fill="#f89e45"/><path d="m601.1 1200.1h33.9v8.9h-33.9z" fill="#f89e45"/><path d="m603.7 1209.1h28.8v33.7h-28.8z" fill="#d67c69"/><path d="m604.9 1093.7h26.4v3.1h-26.4z" fill="#404041" opacity=".2"/><path d="m603.7 1209.1h28.8v3.1h-28.8z" fill="#404041" opacity=".2"/><path d="m701.5 1084.8h33.9v8.9h-33.9z" fill="#f89e45"/><path d="m701.5 1200.1h33.9v8.9h-33.9z" fill="#f89e45"/><path d="m704 1209.1h28.8v33.7h-28.8z" fill="#d67c69"/><path d="m705.2 1093.7h26.4v3.1h-26.4z" fill="#404041" opacity=".2"/><path d="m704 1209.1h28.8v3.1h-28.8z" fill="#404041" opacity=".2"/><path d="m768.6 1039.2c-3.7 6.1-10.7 11.7-17.6 17.3 11.6 12.4 33.4 23.3 32.6 38.1v148.1h22v-159.7c.8-17-28-28.9-37-43.8z" fill="#404041" opacity=".2"/><path d="m868.9 1039.2c-3.7 6.1-10.7 11.7-17.6 17.3 11.6 12.4 33.4 23.3 32.6 38.1v148.1h22v-159.7c.9-17-28-28.9-37-43.8z" fill="#404041" opacity=".2"/><path d="m801.8 1084.8h33.9v8.9h-33.9z" fill="#f89e45"/><path d="m801.8 1200.1h33.9v8.9h-33.9z" fill="#f89e45"/><path d="m804.3 1209.1h28.8v33.7h-28.8z" fill="#d67c69"/><path d="m805.5 1093.7h26.4v3.1h-26.4z" fill="#404041" opacity=".2"/><path d="m804.3 1209.1h28.8v3.1h-28.8z" fill="#404041" opacity=".2"/><path d="m902.1 1084.8h33.9v8.9h-33.9z" fill="#f89e45"/><path d="m902.1 1200.1h33.9v8.9h-33.9z" fill="#f89e45"/><path d="m904.7 1209.1h28.8v33.7h-28.8z" fill="#d67c69"/><path d="m905.9 1093.7h26.4v3.1h-26.4z" fill="#404041" opacity=".2"/><path d="m904.7 1209.1h28.8v3.1h-28.8z" fill="#404041" opacity=".2"/><path d="m1094.6 788.7h8v25.1h-8z" fill="#e5833f"/><path d="m1095.9 766h5.3v25.1h-5.3z" fill="#e5833f"/><path d="m1096.7 745h3.8v25.1h-3.8z" fill="#e5833f"/><path d="m1109.9 819.6h-21.9v.2c-42.2 49.6-136.9 91-73.8 160.8h-3.8v13.7h5.8 167.4 4.1v-13.7h-3.8c63.2-69.8-31.8-111.3-74-161z" fill="#52aaaa"/><path d="m1099 819.6h-11v.2c-42.2 49.6-136.9 91-73.8 160.8h-3.8v13.7h5.8 82.8z" fill="#404041" opacity=".2"/><path d="m1016.3 994.3h167.4v38.1h-167.4z" fill="#f5e2ac"/><path d="m1010.5 980.7h177.3v13.7h-177.3z" fill="#f89e45"/><path d="m1039.7 1012.3c.2-4.5-6.1-7.6-8.1-11.5-2 3.9-8.3 7-8.1 11.5v20.2h.1 2.2 5.8 5.8 2.2.1z" fill="#4b4254"/><path d="m1039.7 1012.3c.2-4.5-6.1-7.6-8.1-11.5-.7 1.4-2 2.7-3.3 4 2.6 2.9 6.6 5.6 6.4 9.2v18.4h2.7 2.2.1z" fill="#404041" opacity=".2"/><path d="m1062.5 1012.3c.2-4.5-6.1-7.6-8.1-11.5-2 3.9-8.3 7-8.1 11.5v20.2h.1 2.2 5.8 5.8 2.2.1z" fill="#4b4254"/><path d="m1085.2 1012.3c.2-4.5-6.1-7.6-8.1-11.5-2 3.9-8.3 7-8.1 11.5v20.2h.1 2.2 5.8 5.8 2.2.1z" fill="#4b4254"/><path d="m1108 1012.3c.2-4.5-6.1-7.6-8.1-11.5-2 3.9-8.3 7-8.1 11.5v20.2h.1 2.2 5.8 5.8 2.2.1z" fill="#4b4254"/><path d="m1130.8 1012.3c.2-4.5-6.1-7.6-8.1-11.5-2 3.9-8.3 7-8.1 11.5v20.2h.1 2.2 5.8 5.8 2.2.1z" fill="#4b4254"/><path d="m1153.5 1012.3c.2-4.5-6.1-7.6-8.1-11.5-2 3.9-8.3 7-8.1 11.5v20.2h.1 2.2 5.8 5.8 2.2.1z" fill="#4b4254"/><path d="m1176.3 1012.3c.2-4.5-6.1-7.6-8.1-11.5-2 3.9-8.3 7-8.1 11.5v20.2h.1 2.2 5.8 5.8 2.2.1z" fill="#4b4254"/><path d="m1107.7 811.4h-17.3c-1.3 0-2.3 1-2.3 2.3v5.9h21.9v-5.9c0-1.2-1-2.3-2.3-2.3z" fill="#f89e45"/><path d="m1096.7 746.3h3.8v3.9h-3.8z" fill="#404041" opacity=".2"/><path d="m1095.9 771.5h5.3v3.9h-5.3z" fill="#404041" opacity=".2"/><path d="m1094.6 800.3h8v3.9h-8z" fill="#404041" opacity=".2"/><path d="m1110.3 740.7c-11.5 0-20.9-9.3-20.9-20.9 0-3 .6-5.8 1.7-8.3-5.2 3.8-8.7 9.9-8.7 16.9 0 11.5 9.3 20.9 20.9 20.9 8.6 0 15.9-5.2 19.1-12.5-3.3 2.4-7.5 3.9-12.1 3.9z" fill="#f89e45"/><path d="m1107.5 764.5c0 5-4 9-9 9s-9-4-9-9 4-9 9-9 9 4 9 9z" fill="#f89e45"/><path d="m1109.6 791c0 6.1-4.9 11-11 11s-11-4.9-11-11 4.9-11 11-11c6 0 11 5 11 11z" fill="#f89e45"/><path d="m1106.7 819.6h-4.1-7.1-4.2v.2c-29.8 49.6-96.5 91-52 160.8h119.6c44.5-69.8-22.5-111.3-52.2-161zm-6.7 3.5c3.3 11.5 7.5 22.7 11.5 33.5 6.6 17.6 13.4 35.9 16.5 55.7 3.4 21.4 2 42.7-4.1 64.9h-49.5c-6.1-22.2-7.5-43.5-4.1-64.9 3.1-19.9 9.9-38.1 16.5-55.7 4-10.8 8.2-22 11.5-33.5zm-71.6 120.4c-1.3-10.2-.2-20.2 3.3-30.6 6.7-19.6 21.5-37.8 35.9-55.4 9.1-11.1 18.5-22.6 25.8-34.5h1.2c-13.8 47.4-41.8 87.9-23.8 154.2h-29.6c-7.2-11.6-11.4-22.6-12.8-33.7zm128.6 33.7h-29.6c18-66.2-10.1-106.8-23.8-154.2h1.2c7.3 11.9 16.7 23.4 25.8 34.5 14.3 17.6 29.1 35.7 35.9 55.4 3.6 10.4 4.7 20.4 3.3 30.6-1.4 11.1-5.6 22.1-12.8 33.7z" fill="#404041" opacity=".2"/><path d="m1062.5 1012.3c.2-4.5-6.1-7.6-8.1-11.5-.7 1.4-2 2.7-3.3 4 2.6 2.9 6.6 5.6 6.4 9.2v18.4h2.7 2.2.1z" fill="#404041" opacity=".2"/><path d="m1085.2 1012.3c.2-4.5-6.1-7.6-8.1-11.5-.7 1.4-2 2.7-3.3 4 2.6 2.9 6.6 5.6 6.4 9.2v18.4h2.7 2.2.1z" fill="#404041" opacity=".2"/><path d="m1108 1012.3c.2-4.5-6.1-7.6-8.1-11.5-.7 1.4-2 2.7-3.3 4 2.6 2.9 6.6 5.6 6.4 9.2v18.4h2.7 2.2.1z" fill="#404041" opacity=".2"/><path d="m1130.8 1012.3c.2-4.5-6.1-7.6-8.1-11.5-.7 1.4-2 2.7-3.3 4 2.6 2.9 6.6 5.6 6.4 9.2v18.4h2.7 2.2.1z" fill="#404041" opacity=".2"/><path d="m1153.5 1012.3c.2-4.5-6.1-7.6-8.1-11.5-.7 1.4-2 2.7-3.3 4 2.6 2.9 6.6 5.6 6.4 9.2v18.4h2.7 2.2.1z" fill="#404041" opacity=".2"/><path d="m1176.3 1012.3c.2-4.5-6.1-7.6-8.1-11.5-.7 1.4-2 2.7-3.3 4 2.6 2.9 6.6 5.6 6.4 9.2v18.4h2.7 2.2.1z" fill="#404041" opacity=".2"/><path d="m1016.3 994.3h167.4v2.5h-167.4z" fill="#404041" opacity=".2"/><path d="m932.3 1043.9h335.9v198.8h-335.9z" fill="#f5e2ac"/><path d="m932.3 1053.4h341.4v9.6h-341.4z" fill="#f89e45"/><path d="m932.3 1063.1h335.9v3.3h-335.9z" fill="#404041" opacity=".2"/><path d="m933.5 1219.9h334.7v22.8h-334.7z" fill="#be6159"/><path d="m998.6 1242.8h-43.6v-133.3c0-10 8.1-18.1 18.1-18.1h7.3c10 0 18.1 8.1 18.1 18.1v133.3z" fill="#4b4254"/><path d="m976.8 1084.8c-15.6 0-28.4 12.7-28.4 28.4v123.1 6.6h6.6v-6.6-25.9-97.1c0-12 9.8-21.8 21.8-21.8s21.8 9.8 21.8 21.8v97.1 32.5h6.6v-6.6-123.1c0-15.7-12.7-28.4-28.4-28.4z" fill="#f89e45"/><path d="m976.8 1091.4c-6.5 0-12.2 2.8-16.2 7.3h.9c12 0 21.8 9.8 21.8 21.8v122.4h15.3v-129.6c0-12.2-9.7-21.9-21.8-21.9z" fill="#404041" opacity=".2"/><path d="m1077.8 1242.8h-43.6v-133.3c0-10 8.1-18.1 18.1-18.1h7.3c10 0 18.1 8.1 18.1 18.1v133.3z" fill="#4b4254"/><path d="m1056 1084.8c-15.6 0-28.4 12.7-28.4 28.4v123.1 6.6h6.6v-6.6-25.9-97.1c0-12 9.8-21.8 21.8-21.8s21.8 9.8 21.8 21.8v97.1 32.5h6.6v-6.6-123.1c0-15.7-12.7-28.4-28.4-28.4z" fill="#f89e45"/><path d="m1056 1091.4c-6.5 0-12.2 2.8-16.2 7.3h.9c12 0 21.8 9.8 21.8 21.8v122.4h15.3v-129.6c0-12.2-9.7-21.9-21.8-21.9z" fill="#404041" opacity=".2"/><path d="m1157 1242.8h-43.6v-133.3c0-10 8.1-18.1 18.1-18.1h7.3c10 0 18.1 8.1 18.1 18.1v133.3z" fill="#4b4254"/><path d="m1135.2 1084.8c-15.6 0-28.4 12.7-28.4 28.4v123.1 6.6h6.6v-6.6-25.9-97.1c0-12 9.8-21.8 21.8-21.8s21.8 9.8 21.8 21.8v97.1 32.5h6.6v-6.6-123.1c0-15.7-12.7-28.4-28.4-28.4z" fill="#f89e45"/><path d="m1135.2 1091.4c-6.5 0-12.2 2.8-16.2 7.3h.9c12 0 21.8 9.8 21.8 21.8v122.4h15.3v-129.6c0-12.2-9.7-21.9-21.8-21.9z" fill="#404041" opacity=".2"/><path d="m1236.2 1242.8h-43.6v-133.3c0-10 8.1-18.1 18.1-18.1h7.3c10 0 18.1 8.1 18.1 18.1v133.3z" fill="#4b4254"/><path d="m1214.4 1084.8c-15.6 0-28.4 12.7-28.4 28.4v123.1 6.6h6.6v-6.6-25.9-97.1c0-12 9.8-21.8 21.8-21.8s21.8 9.8 21.8 21.8v97.1 32.5h6.6v-6.6-123.1c0-15.7-12.7-28.4-28.4-28.4z" fill="#f89e45"/><path d="m1214.4 1091.4c-6.5 0-12.2 2.8-16.2 7.3h.9c12 0 21.8 9.8 21.8 21.8v122.4h15.3v-129.6c0-12.2-9.7-21.9-21.8-21.9z" fill="#404041" opacity=".2"/><path d="m932.3 1037.9h338.1v6.1h-338.1z" fill="#be6159"/><path d="m932.3 1031.8h340.2v6.1h-340.2z" fill="#be6159"/><path d="m932.3 1037.9h338.1v2.2h-338.1z" fill="#404041" opacity=".2"/><path d="m932.3 1043.9h335.9v2.2h-335.9z" fill="#404041" opacity=".2"/><path d="m601.1 996.9h334.9v9.7h-334.9z" fill="#f89e45"/><path d="m604.9 1006.6h327.4v3.2h-327.4z" fill="#404041" opacity=".2"/><path d="m603.1 982.3h331v6.1h-331z" fill="#d67c69"/><path d="m601.1 976.3h334.9v6.1h-334.9z" fill="#d67c69"/><path d="m603.1 982.3h331v2.2h-331z" fill="#404041" opacity=".2"/><path d="m604.9 988.4h327.4v2.2h-327.4z" fill="#404041" opacity=".2"/><path d="m635.6 916h264.8v5.2h-264.8z" fill="#404041" opacity=".2"/></svg>